<svg width="106" height="168" viewBox="0 0 106 168" fill="none" xmlns="http://www.w3.org/2000/svg">
<path d="M51.4941 0.792969C67.6738 0.792969 81.7383 7.99219 93.6875 22.3906C99.9961 31.9648 103.15 41.873 103.15 52.1152C103.15 67.7012 95.6914 82.5078 80.7734 96.5352L39.0254 144.295H94.3555C100.367 144.295 104.004 147.932 105.266 155.205V156.207C104.152 163.629 100.367 167.34 93.9102 167.34H11.9727C4.69922 166.004 1.0625 162.219 1.0625 155.984V155.539C1.0625 151.902 3.99414 147.338 9.85742 141.846L74.873 67.7012C78.0645 63.248 79.6602 58.0527 79.6602 52.1152C79.6602 39.4238 72.9805 30.5176 59.6211 25.3965C57.543 24.7285 55.0938 24.3945 52.2734 24.3945H51.0488C38.877 24.3945 30.082 30.9258 24.6641 43.9883C23.9961 46.6602 23.5137 50.2227 23.2168 54.6758C20.4707 60.2422 16.834 63.0254 12.3066 63.0254H11.1934C3.8457 61.6895 0.171875 58.0527 0.171875 52.1152C0.171875 34.1543 8.70703 19.459 25.7773 8.0293C34.9062 3.20508 43.4785 0.792969 51.4941 0.792969Z" fill="#EAA89A"/>
</svg>
