<svg width="148" height="148" viewBox="0 0 148 148" fill="none" xmlns="http://www.w3.org/2000/svg">
<g clip-path="url(#clip0)">
<path d="M3.70008 64.0839C3.7046 64.0805 3.70799 64.076 3.71138 64.0726L64.0838 3.70249C66.6571 1.12802 70.0785 -0.289062 73.7177 -0.289062C77.357 -0.289062 80.7783 1.12802 83.3528 3.70249L143.694 64.0422C143.714 64.0625 143.735 64.0839 143.755 64.1043C149.039 69.4192 149.03 78.0425 143.729 83.3439C141.307 85.7671 138.109 87.1695 134.689 87.3174C134.549 87.3309 134.409 87.3377 134.267 87.3377H131.862V131.765C131.862 140.558 124.708 147.711 115.915 147.711H92.2957C89.9007 147.711 87.9597 145.769 87.9597 143.375V108.543C87.9597 104.531 84.6953 101.268 80.6835 101.268H66.752C62.7401 101.268 59.4768 104.531 59.4768 108.543V143.375C59.4768 145.769 57.5358 147.711 55.1409 147.711H31.5213C22.7274 147.711 15.5743 140.558 15.5743 131.765V87.3377H13.343C9.70492 87.3377 6.28359 85.9206 3.70799 83.345C-1.59903 78.0357 -1.60129 69.3966 3.70008 64.0839V64.0839ZM9.84042 77.2137C10.7765 78.1498 12.0208 78.6658 13.343 78.6658H19.9102C22.3051 78.6658 24.2461 80.6068 24.2461 83.0018V131.765C24.2461 135.776 27.5094 139.039 31.5213 139.039H50.805V108.543C50.805 99.7505 57.9581 92.5962 66.752 92.5962H80.6835C89.4773 92.5962 96.6316 99.7505 96.6316 108.543V139.039H115.915C119.926 139.039 123.19 135.776 123.19 131.765V83.0018C123.19 80.6068 125.131 78.6658 127.526 78.6658H133.981C134.048 78.6613 134.115 78.6579 134.184 78.6568C135.476 78.6342 136.687 78.1216 137.595 77.2126C139.526 75.2817 139.526 72.1393 137.595 70.2073C137.594 70.2073 137.594 70.2062 137.593 70.2051L137.589 70.2017L77.2192 9.83379C76.2843 8.89772 75.0411 8.38283 73.7177 8.38283C72.3955 8.38283 71.1523 8.89772 70.2162 9.83379L9.85961 70.1893C9.85058 70.1983 9.84042 70.2073 9.83138 70.2164C7.9107 72.1506 7.91408 75.2863 9.84042 77.2137V77.2137Z" fill="black"/>
</g>
<defs>
<clipPath id="clip0">
<rect width="148" height="148" transform="matrix(-1 0 0 1 148 0)" fill="white"/>
</clipPath>
</defs>
</svg>
