<svg width="148" height="148" viewBox="0 0 148 148" fill="none" xmlns="http://www.w3.org/2000/svg">
<path d="M21.5834 33.9166H40.0834C41.4154 33.9166 42.587 33.0716 43.0064 31.8076L44.955 25.9555C47.064 19.6531 52.9409 15.4166 59.5824 15.4166H88.4179C95.0654 15.4166 100.942 19.6531 103.039 25.9555L104.987 31.8076C105.413 33.0716 106.591 33.9166 107.917 33.9166H126.417C138.318 33.9166 148 43.5984 148 55.5V111C148 122.902 138.318 132.583 126.417 132.583H21.5831C9.68157 132.583 0 122.902 0 111V55.5C0 43.5984 9.68157 33.9166 21.5834 33.9166ZM74 120.25C94.4055 120.25 111 103.655 111 83.25C111 62.8445 94.4055 46.25 74 46.25C53.5945 46.25 37 62.8445 37 83.25C37 103.655 53.5945 120.25 74 120.25Z" fill="black"/>
<path d="M74 58.5834C87.6036 58.5834 98.6666 69.6464 98.6666 83.25C98.6666 84.952 97.2851 86.3334 95.5831 86.3334C93.8811 86.3334 92.5 84.952 92.5 83.25C92.5 73.0504 84.1996 64.75 74 64.75C72.298 64.75 70.9166 63.3686 70.9166 61.6666C70.9166 59.9646 72.298 58.5834 74 58.5834Z" fill="black"/>
</svg>
